{
 "asset": {
  "version": "2.0",
  "generator": "SightLine logo - authored"
 },
 "extensionsUsed": [
  "KHR_materials_unlit"
 ],
 "scene": 0,
 "scenes": [
  {
   "nodes": [
    0,
    1
   ]
  }
 ],
 "nodes": [
  {
   "mesh": 0
  },
  {
   "mesh": 1
  }
 ],
 "meshes": [
  {
   "name": "lettering",
   "primitives": [
    {
     "attributes": {
      "POSITION": 0,
      "NORMAL": 1,
      "TEXCOORD_0": 2
     },
     "indices": 3,
     "material": 0
    }
   ]
  },
  {
   "name": "crosshair",
   "primitives": [
    {
     "attributes": {
      "POSITION": 4,
      "NORMAL": 5,
      "TEXCOORD_0": 6
     },
     "indices": 7,
     "material": 1
    }
   ]
  }
 ],
 "materials": [
  {
   "name": "SightLine-gold",
   "extensions": {
    "KHR_materials_unlit": {}
   },
   "extras": {
    "sl_texgen": true
   },
   "pbrMetallicRoughness": {
    "baseColorFactor": [
     1,
     1,
     1,
     1
    ],
    "baseColorTexture": {
     "index": 0
    },
    "metallicFactor": 0.0,
    "roughnessFactor": 1.0
   }
  },
  {
   "name": "SightLine-crosshair-red",
   "extensions": {
    "KHR_materials_unlit": {}
   },
   "extras": {
    "sl_texgen": false
   },
   "pbrMetallicRoughness": {
    "baseColorFactor": [
     0.839,
     0.18,
     0.165,
     1.0
    ],
    "metallicFactor": 0.0,
    "roughnessFactor": 1.0
   }
  }
 ],
 "textures": [
  {
   "source": 0
  }
 ],
 "images": [
  {
   "uri": "textures/ramp_gold.png",
   "extras": {
    "sl_authored": true,
    "sl_authored_provenance": "64x64 vertical colour ramp authored by the project owner: seven colour stops interpolated top to bottom, generated by the owner's own tooling. It is not resampled from any ROM texture and contains no game pixels; an earlier revision that did resample the original env map was discarded for exactly that reason."
   }
  }
 ],
 "buffers": [
  {
   "uri": "sightline.bin",
   "byteLength": 247812
  }
 ],
 "bufferViews": [
  {
   "buffer": 0,
   "byteOffset": 0,
   "byteLength": 53052
  },
  {
   "buffer": 0,
   "byteOffset": 53052,
   "byteLength": 53052
  },
  {
   "buffer": 0,
   "byteOffset": 106104,
   "byteLength": 35368
  },
  {
   "buffer": 0,
   "byteOffset": 141472,
   "byteLength": 52860
  },
  {
   "buffer": 0,
   "byteOffset": 194332,
   "byteLength": 14592
  },
  {
   "buffer": 0,
   "byteOffset": 208924,
   "byteLength": 14592
  },
  {
   "buffer": 0,
   "byteOffset": 223516,
   "byteLength": 9728
  },
  {
   "buffer": 0,
   "byteOffset": 233244,
   "byteLength": 14568
  }
 ],
 "accessors": [
  {
   "bufferView": 0,
   "componentType": 5126,
   "count": 4421,
   "type": "VEC3",
   "min": [
    -1269.865966796875,
    -122.47914123535156,
    0.0
   ],
   "max": [
    1273.9974365234375,
    49.52085876464844,
    0.0
   ]
  },
  {
   "bufferView": 1,
   "componentType": 5126,
   "count": 4421,
   "type": "VEC3"
  },
  {
   "bufferView": 2,
   "componentType": 5126,
   "count": 4421,
   "type": "VEC2"
  },
  {
   "bufferView": 3,
   "componentType": 5125,
   "count": 13215,
   "type": "SCALAR"
  },
  {
   "bufferView": 4,
   "componentType": 5126,
   "count": 1216,
   "type": "VEC3",
   "min": [
    -77.03860473632812,
    -141.4595947265625,
    0.0
   ],
   "max": [
    127.48613739013672,
    63.06515121459961,
    0.0
   ]
  },
  {
   "bufferView": 5,
   "componentType": 5126,
   "count": 1216,
   "type": "VEC3"
  },
  {
   "bufferView": 6,
   "componentType": 5126,
   "count": 1216,
   "type": "VEC2"
  },
  {
   "bufferView": 7,
   "componentType": 5125,
   "count": 3642,
   "type": "SCALAR"
  }
 ]
}