{
 "asset": {
  "version": "2.0",
  "generator": "sightline controller package builder",
  "extras": {
   "sl_third_party": {
    "title": "Playstation 5 Dualsense",
    "author": "AHarmlessPotato",
    "author_url": "https://sketchfab.com/AHarmlessPotato",
    "source_url": "https://sketchfab.com/3d-models/playstation-5-dualsense-878c1f882808477ab81c2fe86d5a3936",
    "license": "CC-BY-4.0",
    "license_url": "http://creativecommons.org/licenses/by/4.0/",
    "attribution": "This work is based on \"Playstation 5 Dualsense\" (https://sketchfab.com/3d-models/playstation-5-dualsense-878c1f882808477ab81c2fe86d5a3936) by AHarmlessPotato (https://sketchfab.com/AHarmlessPotato) licensed under CC-BY-4.0 (http://creativecommons.org/licenses/by/4.0/)",
    "changes": "geometry: mesh split into one node per physical control with pivots; re-based into the GoldenEye joypad model frame (GjoypadZ) and scaled to its 788-unit width; normal / metallic-roughness / emissive maps dropped; base-colour textures resized to 1024 px and re-encoded as PNG; manufacturer logos removed (button symbols and letters kept); compiled to Sightline's native .slmodel format with a part table"
   },
   "sl_note": "THIRD-PARTY CC-BY-4.0 work, not Sightline-authored and not under the CC0 grant. Nodes flagged extras.sl_authored_part are the owner's own replacement geometry (the de-branded Guide / PS buttons). No GoldenEye data."
  }
 },
 "scene": 0,
 "scenes": [
  {
   "nodes": [
    17
   ]
  }
 ],
 "nodes": [
  {
   "name": "body",
   "mesh": 0,
   "translation": [
    0.0,
    0.0,
    0.0
   ],
   "extras": {
    "sl_part": "body"
   }
  },
  {
   "name": "btn_circle",
   "mesh": 1,
   "translation": [
    303.15383934974676,
    60.368822848677695,
    -108.68371316218037
   ],
   "extras": {
    "sl_part": "btn_circle"
   }
  },
  {
   "name": "btn_create",
   "mesh": 2,
   "translation": [
    -183.90777072310442,
    58.454779004537585,
    -194.3465987538082
   ],
   "extras": {
    "sl_part": "btn_create"
   }
  },
  {
   "name": "btn_cross",
   "mesh": 3,
   "translation": [
    245.5433595180512,
    59.261680678200335,
    -50.799793308318215
   ],
   "extras": {
    "sl_part": "btn_cross"
   }
  },
  {
   "name": "btn_mute",
   "mesh": 4,
   "translation": [
    4.263256414560601e-14,
    25.983253709465927,
    37.57747783336745
   ],
   "extras": {
    "sl_part": "btn_mute"
   }
  },
  {
   "name": "btn_options",
   "mesh": 5,
   "translation": [
    183.90777072310453,
    58.454779004537485,
    -194.3465987538082
   ],
   "extras": {
    "sl_part": "btn_options"
   }
  },
  {
   "name": "btn_ps",
   "mesh": 6,
   "translation": [
    -0.05000000000000071,
    51.82989358974828,
    -7.949999999999999
   ],
   "extras": {
    "sl_part": "btn_ps",
    "sl_authored_part": "plain btn_ps replacing the original logo-shaped part"
   }
  },
  {
   "name": "btn_square",
   "mesh": 7,
   "translation": [
    187.52469441294676,
    63.62996046375909,
    -108.68390957713417
   ],
   "extras": {
    "sl_part": "btn_square"
   }
  },
  {
   "name": "btn_triangle",
   "mesh": 8,
   "translation": [
    245.34438937902456,
    61.97555698055602,
    -166.78905840634917
   ],
   "extras": {
    "sl_part": "btn_triangle"
   }
  },
  {
   "name": "dpad",
   "mesh": 9,
   "translation": [
    -245.64697781205172,
    61.54491574710616,
    -108.87165186165669
   ],
   "extras": {
    "sl_part": "dpad"
   }
  },
  {
   "name": "l1",
   "mesh": 10,
   "translation": [
    -243.79656726121902,
    29.01549011254798,
    -227.46112268329563
   ],
   "extras": {
    "sl_part": "l1"
   }
  },
  {
   "name": "l2",
   "mesh": 11,
   "translation": [
    -241.85295954346657,
    -63.72932305534502,
    -207.9415793310551
   ],
   "extras": {
    "sl_part": "l2"
   }
  },
  {
   "name": "r1",
   "mesh": 12,
   "translation": [
    243.79656726121902,
    29.01549011254785,
    -227.46112268329563
   ],
   "extras": {
    "sl_part": "r1"
   }
  },
  {
   "name": "r2",
   "mesh": 13,
   "translation": [
    241.85315915942192,
    -63.729323055345155,
    -207.94157933105424
   ],
   "extras": {
    "sl_part": "r2"
   }
  },
  {
   "name": "stick_l",
   "mesh": 14,
   "translation": [
    -125.15272235870356,
    96.02029965937174,
    0.49585656570508263
   ],
   "extras": {
    "sl_part": "stick_l"
   }
  },
  {
   "name": "stick_r",
   "mesh": 15,
   "translation": [
    125.15272235870367,
    96.02029965937166,
    0.49585656570508263
   ],
   "extras": {
    "sl_part": "stick_r"
   }
  },
  {
   "name": "touchpad",
   "mesh": 16,
   "translation": [
    5.684341886080802e-14,
    57.41027980262871,
    -166.9905890374897
   ],
   "extras": {
    "sl_part": "touchpad"
   }
  },
  {
   "name": "controller_dualsense",
   "children": [
    0,
    1,
    2,
    3,
    4,
    5,
    6,
    7,
    8,
    9,
    10,
    11,
    12,
    13,
    14,
    15,
    16
   ],
   "extras": {
    "sl_frame": "GjoypadZ: +x right, +y up (toward camera), -z top edge; width fitted to 788",
    "sl_press": "buttons depress along local -y by 10 (as watchRenderController does); triggers/bumpers rotate about their pivot"
   }
  }
 ],
 "meshes": [
  {
   "name": "body",
   "primitives": [
    {
     "attributes": {
      "POSITION": 0,
      "NORMAL": 1,
      "TEXCOORD_0": 2
     },
     "indices": 3,
     "mode": 4,
     "material": 2
    },
    {
     "attributes": {
      "POSITION": 4,
      "NORMAL": 5,
      "TEXCOORD_0": 6
     },
     "indices": 7,
     "mode": 4,
     "material": 1
    },
    {
     "attributes": {
      "POSITION": 8,
      "NORMAL": 9,
      "TEXCOORD_0": 10
     },
     "indices": 11,
     "mode": 4,
     "material": 0
    }
   ]
  },
  {
   "name": "btn_circle",
   "primitives": [
    {
     "attributes": {
      "POSITION": 12,
      "NORMAL": 13,
      "TEXCOORD_0": 14
     },
     "indices": 15,
     "mode": 4,
     "material": 1
    },
    {
     "attributes": {
      "POSITION": 16,
      "NORMAL": 17,
      "TEXCOORD_0": 18
     },
     "indices": 19,
     "mode": 4,
     "material": 0
    }
   ]
  },
  {
   "name": "btn_create",
   "primitives": [
    {
     "attributes": {
      "POSITION": 20,
      "NORMAL": 21,
      "TEXCOORD_0": 22
     },
     "indices": 23,
     "mode": 4,
     "material": 1
    },
    {
     "attributes": {
      "POSITION": 24,
      "NORMAL": 25,
      "TEXCOORD_0": 26
     },
     "indices": 27,
     "mode": 4,
     "material": 0
    }
   ]
  },
  {
   "name": "btn_cross",
   "primitives": [
    {
     "attributes": {
      "POSITION": 28,
      "NORMAL": 29,
      "TEXCOORD_0": 30
     },
     "indices": 31,
     "mode": 4,
     "material": 1
    },
    {
     "attributes": {
      "POSITION": 32,
      "NORMAL": 33,
      "TEXCOORD_0": 34
     },
     "indices": 35,
     "mode": 4,
     "material": 0
    }
   ]
  },
  {
   "name": "btn_mute",
   "primitives": [
    {
     "attributes": {
      "POSITION": 36,
      "NORMAL": 37,
      "TEXCOORD_0": 38
     },
     "indices": 39,
     "mode": 4,
     "material": 1
    },
    {
     "attributes": {
      "POSITION": 40,
      "NORMAL": 41,
      "TEXCOORD_0": 42
     },
     "indices": 43,
     "mode": 4,
     "material": 0
    }
   ]
  },
  {
   "name": "btn_options",
   "primitives": [
    {
     "attributes": {
      "POSITION": 44,
      "NORMAL": 45,
      "TEXCOORD_0": 46
     },
     "indices": 47,
     "mode": 4,
     "material": 1
    },
    {
     "attributes": {
      "POSITION": 48,
      "NORMAL": 49,
      "TEXCOORD_0": 50
     },
     "indices": 51,
     "mode": 4,
     "material": 0
    }
   ]
  },
  {
   "name": "btn_ps",
   "primitives": [
    {
     "attributes": {
      "POSITION": 52,
      "NORMAL": 53,
      "TEXCOORD_0": 54
     },
     "indices": 55,
     "mode": 4,
     "material": 1
    }
   ]
  },
  {
   "name": "btn_square",
   "primitives": [
    {
     "attributes": {
      "POSITION": 56,
      "NORMAL": 57,
      "TEXCOORD_0": 58
     },
     "indices": 59,
     "mode": 4,
     "material": 1
    },
    {
     "attributes": {
      "POSITION": 60,
      "NORMAL": 61,
      "TEXCOORD_0": 62
     },
     "indices": 63,
     "mode": 4,
     "material": 0
    }
   ]
  },
  {
   "name": "btn_triangle",
   "primitives": [
    {
     "attributes": {
      "POSITION": 64,
      "NORMAL": 65,
      "TEXCOORD_0": 66
     },
     "indices": 67,
     "mode": 4,
     "material": 1
    },
    {
     "attributes": {
      "POSITION": 68,
      "NORMAL": 69,
      "TEXCOORD_0": 70
     },
     "indices": 71,
     "mode": 4,
     "material": 0
    }
   ]
  },
  {
   "name": "dpad",
   "primitives": [
    {
     "attributes": {
      "POSITION": 72,
      "NORMAL": 73,
      "TEXCOORD_0": 74
     },
     "indices": 75,
     "mode": 4,
     "material": 1
    },
    {
     "attributes": {
      "POSITION": 76,
      "NORMAL": 77,
      "TEXCOORD_0": 78
     },
     "indices": 79,
     "mode": 4,
     "material": 0
    }
   ]
  },
  {
   "name": "l1",
   "primitives": [
    {
     "attributes": {
      "POSITION": 80,
      "NORMAL": 81,
      "TEXCOORD_0": 82
     },
     "indices": 83,
     "mode": 4,
     "material": 1
    }
   ]
  },
  {
   "name": "l2",
   "primitives": [
    {
     "attributes": {
      "POSITION": 84,
      "NORMAL": 85,
      "TEXCOORD_0": 86
     },
     "indices": 87,
     "mode": 4,
     "material": 1
    }
   ]
  },
  {
   "name": "r1",
   "primitives": [
    {
     "attributes": {
      "POSITION": 88,
      "NORMAL": 89,
      "TEXCOORD_0": 90
     },
     "indices": 91,
     "mode": 4,
     "material": 1
    }
   ]
  },
  {
   "name": "r2",
   "primitives": [
    {
     "attributes": {
      "POSITION": 92,
      "NORMAL": 93,
      "TEXCOORD_0": 94
     },
     "indices": 95,
     "mode": 4,
     "material": 1
    }
   ]
  },
  {
   "name": "stick_l",
   "primitives": [
    {
     "attributes": {
      "POSITION": 96,
      "NORMAL": 97,
      "TEXCOORD_0": 98
     },
     "indices": 99,
     "mode": 4,
     "material": 1
    }
   ]
  },
  {
   "name": "stick_r",
   "primitives": [
    {
     "attributes": {
      "POSITION": 100,
      "NORMAL": 101,
      "TEXCOORD_0": 102
     },
     "indices": 103,
     "mode": 4,
     "material": 1
    }
   ]
  },
  {
   "name": "touchpad",
   "primitives": [
    {
     "attributes": {
      "POSITION": 104,
      "NORMAL": 105,
      "TEXCOORD_0": 106
     },
     "indices": 107,
     "mode": 4,
     "material": 0
    }
   ]
  }
 ],
 "materials": [
  {
   "name": "dualsense_mat0",
   "doubleSided": false,
   "pbrMetallicRoughness": {
    "baseColorTexture": {
     "index": 0
    },
    "metallicFactor": 0.0,
    "roughnessFactor": 1.0
   },
   "extras": {
    "sl_texgen": false
   }
  },
  {
   "name": "dualsense_mat1",
   "doubleSided": false,
   "alphaMode": "MASK",
   "alphaCutoff": 0.5,
   "pbrMetallicRoughness": {
    "baseColorTexture": {
     "index": 1
    },
    "metallicFactor": 0.0,
    "roughnessFactor": 1.0
   },
   "extras": {
    "sl_texgen": false,
    "sl_note": "alphaMode MASK added by Sightline (2026-09-20): the tile's alpha channel is the author's clear-coat layering (each face button has a cap at alpha ~51 over the symbol face at ~150-160; 26% of the tile is below 128), exported without an alphaMode and so drawn OPAQUE, which hid the button symbols and the d-pad arrows under the caps. See metadata.json sightline_edits."
   }
  },
  {
   "name": "dualsense_mat2",
   "doubleSided": false,
   "pbrMetallicRoughness": {
    "baseColorTexture": {
     "index": 2
    },
    "metallicFactor": 0.0,
    "roughnessFactor": 1.0
   },
   "extras": {
    "sl_texgen": false
   }
  }
 ],
 "textures": [
  {
   "source": 0
  },
  {
   "source": 1
  },
  {
   "source": 2
  }
 ],
 "images": [
  {
   "uri": "textures/dualsense_basecolor_0.png",
   "extras": {
    "sl_third_party": {
     "title": "Playstation 5 Dualsense",
     "author": "AHarmlessPotato",
     "author_url": "https://sketchfab.com/AHarmlessPotato",
     "source_url": "https://sketchfab.com/3d-models/playstation-5-dualsense-878c1f882808477ab81c2fe86d5a3936",
     "license": "CC-BY-4.0",
     "license_url": "http://creativecommons.org/licenses/by/4.0/",
     "attribution": "This work is based on \"Playstation 5 Dualsense\" (https://sketchfab.com/3d-models/playstation-5-dualsense-878c1f882808477ab81c2fe86d5a3936) by AHarmlessPotato (https://sketchfab.com/AHarmlessPotato) licensed under CC-BY-4.0 (http://creativecommons.org/licenses/by/4.0/)",
     "changes": "base-colour map of the model, resized to 1024 px and re-encoded as PNG"
    }
   }
  },
  {
   "uri": "textures/dualsense_basecolor_1.png",
   "extras": {
    "sl_third_party": {
     "title": "Playstation 5 Dualsense",
     "author": "AHarmlessPotato",
     "author_url": "https://sketchfab.com/AHarmlessPotato",
     "source_url": "https://sketchfab.com/3d-models/playstation-5-dualsense-878c1f882808477ab81c2fe86d5a3936",
     "license": "CC-BY-4.0",
     "license_url": "http://creativecommons.org/licenses/by/4.0/",
     "attribution": "This work is based on \"Playstation 5 Dualsense\" (https://sketchfab.com/3d-models/playstation-5-dualsense-878c1f882808477ab81c2fe86d5a3936) by AHarmlessPotato (https://sketchfab.com/AHarmlessPotato) licensed under CC-BY-4.0 (http://creativecommons.org/licenses/by/4.0/)",
     "changes": "base-colour map of the model, resized to 1024 px and re-encoded as PNG; the four face-button symbols darkened and thickened by script (tools/asset/darken_symbols.py; metadata.json sightline_edits)"
    }
   }
  },
  {
   "uri": "textures/dualsense_basecolor_2.png",
   "extras": {
    "sl_third_party": {
     "title": "Playstation 5 Dualsense",
     "author": "AHarmlessPotato",
     "author_url": "https://sketchfab.com/AHarmlessPotato",
     "source_url": "https://sketchfab.com/3d-models/playstation-5-dualsense-878c1f882808477ab81c2fe86d5a3936",
     "license": "CC-BY-4.0",
     "license_url": "http://creativecommons.org/licenses/by/4.0/",
     "attribution": "This work is based on \"Playstation 5 Dualsense\" (https://sketchfab.com/3d-models/playstation-5-dualsense-878c1f882808477ab81c2fe86d5a3936) by AHarmlessPotato (https://sketchfab.com/AHarmlessPotato) licensed under CC-BY-4.0 (http://creativecommons.org/licenses/by/4.0/)",
     "changes": "base-colour map of the model, resized to 1024 px and re-encoded as PNG; manufacturer wordmark painted out"
    }
   }
  }
 ],
 "accessors": [
  {
   "bufferView": 0,
   "componentType": 5126,
   "count": 7482,
   "type": "VEC3",
   "min": [
    -394.0,
    -227.02029418945312,
    -252.27818298339844
   ],
   "max": [
    394.0,
    54.738563537597656,
    256.0759582519531
   ]
  },
  {
   "bufferView": 1,
   "componentType": 5126,
   "count": 7482,
   "type": "VEC3"
  },
  {
   "bufferView": 2,
   "componentType": 5126,
   "count": 7482,
   "type": "VEC2"
  },
  {
   "bufferView": 3,
   "componentType": 5125,
   "count": 41856,
   "type": "SCALAR"
  },
  {
   "bufferView": 4,
   "componentType": 5126,
   "count": 6361,
   "type": "VEC3",
   "min": [
    -297.75250244140625,
    -63.72932434082031,
    -249.9914093017578
   ],
   "max": [
    297.75250244140625,
    77.88803100585938,
    78.12468719482422
   ]
  },
  {
   "bufferView": 5,
   "componentType": 5126,
   "count": 6361,
   "type": "VEC3"
  },
  {
   "bufferView": 6,
   "componentType": 5126,
   "count": 6361,
   "type": "VEC2"
  },
  {
   "bufferView": 7,
   "componentType": 5125,
   "count": 31992,
   "type": "SCALAR"
  },
  {
   "bufferView": 8,
   "componentType": 5126,
   "count": 20613,
   "type": "VEC3",
   "min": [
    -393.3975830078125,
    -219.3290252685547,
    -245.2003631591797
   ],
   "max": [
    393.3975830078125,
    63.256839752197266,
    255.6421661376953
   ]
  },
  {
   "bufferView": 9,
   "componentType": 5126,
   "count": 20613,
   "type": "VEC3"
  },
  {
   "bufferView": 10,
   "componentType": 5126,
   "count": 20613,
   "type": "VEC2"
  },
  {
   "bufferView": 11,
   "componentType": 5125,
   "count": 116820,
   "type": "SCALAR"
  },
  {
   "bufferView": 12,
   "componentType": 5126,
   "count": 978,
   "type": "VEC3",
   "min": [
    -24.294811248779297,
    -29.47986602783203,
    -24.651002883911133
   ],
   "max": [
    24.488298416137695,
    0.0,
    24.457551956176758
   ]
  },
  {
   "bufferView": 13,
   "componentType": 5126,
   "count": 978,
   "type": "VEC3"
  },
  {
   "bufferView": 14,
   "componentType": 5126,
   "count": 978,
   "type": "VEC2"
  },
  {
   "bufferView": 15,
   "componentType": 5125,
   "count": 5376,
   "type": "SCALAR"
  },
  {
   "bufferView": 16,
   "componentType": 5126,
   "count": 63,
   "type": "VEC3",
   "min": [
    -25.463035583496094,
    -30.904571533203125,
    -25.43112564086914
   ],
   "max": [
    25.463035583496094,
    -8.34925365447998,
    25.43112564086914
   ]
  },
  {
   "bufferView": 17,
   "componentType": 5126,
   "count": 63,
   "type": "VEC3"
  },
  {
   "bufferView": 18,
   "componentType": 5126,
   "count": 63,
   "type": "VEC2"
  },
  {
   "bufferView": 19,
   "componentType": 5125,
   "count": 240,
   "type": "SCALAR"
  },
  {
   "bufferView": 20,
   "componentType": 5126,
   "count": 175,
   "type": "VEC3",
   "min": [
    -10.396486282348633,
    -16.494417190551758,
    -17.85746192932129
   ],
   "max": [
    10.279851913452148,
    0.0,
    17.626176834106445
   ]
  },
  {
   "bufferView": 21,
   "componentType": 5126,
   "count": 175,
   "type": "VEC3"
  },
  {
   "bufferView": 22,
   "componentType": 5126,
   "count": 175,
   "type": "VEC2"
  },
  {
   "bufferView": 23,
   "componentType": 5125,
   "count": 864,
   "type": "SCALAR"
  },
  {
   "bufferView": 24,
   "componentType": 5126,
   "count": 63,
   "type": "VEC3",
   "min": [
    -10.828302383422852,
    -17.240652084350586,
    -17.14471435546875
   ],
   "max": [
    10.828302383422852,
    -5.708675861358643,
    17.85746192932129
   ]
  },
  {
   "bufferView": 25,
   "componentType": 5126,
   "count": 63,
   "type": "VEC3"
  },
  {
   "bufferView": 26,
   "componentType": 5126,
   "count": 63,
   "type": "VEC2"
  },
  {
   "bufferView": 27,
   "componentType": 5125,
   "count": 240,
   "type": "SCALAR"
  },
  {
   "bufferView": 28,
   "componentType": 5126,
   "count": 978,
   "type": "VEC3",
   "min": [
    -25.097196578979492,
    -24.756994247436523,
    -24.750883102416992
   ],
   "max": [
    24.54757308959961,
    0.0,
    24.893905639648438
   ]
  },
  {
   "bufferView": 29,
   "componentType": 5126,
   "count": 978,
   "type": "VEC3"
  },
  {
   "bufferView": 30,
   "componentType": 5126,
   "count": 978,
   "type": "VEC2"
  },
  {
   "bufferView": 31,
   "componentType": 5125,
   "count": 5376,
   "type": "SCALAR"
  },
  {
   "bufferView": 32,
   "componentType": 5126,
   "count": 75,
   "type": "VEC3",
   "min": [
    -25.60192108154297,
    -24.446908950805664,
    -25.60192108154297
   ],
   "max": [
    25.60192108154297,
    -8.156976699829102,
    25.60192108154297
   ]
  },
  {
   "bufferView": 33,
   "componentType": 5126,
   "count": 75,
   "type": "VEC3"
  },
  {
   "bufferView": 34,
   "componentType": 5126,
   "count": 75,
   "type": "VEC2"
  },
  {
   "bufferView": 35,
   "componentType": 5125,
   "count": 288,
   "type": "SCALAR"
  },
  {
   "bufferView": 36,
   "componentType": 5126,
   "count": 604,
   "type": "VEC3",
   "min": [
    -40.335357666015625,
    -15.921932220458984,
    -11.811212539672852
   ],
   "max": [
    40.335357666015625,
    0.0,
    11.811212539672852
   ]
  },
  {
   "bufferView": 37,
   "componentType": 5126,
   "count": 604,
   "type": "VEC3"
  },
  {
   "bufferView": 38,
   "componentType": 5126,
   "count": 604,
   "type": "VEC2"
  },
  {
   "bufferView": 39,
   "componentType": 5125,
   "count": 3264,
   "type": "SCALAR"
  },
  {
   "bufferView": 40,
   "componentType": 5126,
   "count": 111,
   "type": "VEC3",
   "min": [
    -20.153257369995117,
    -13.91292667388916,
    -4.512243747711182
   ],
   "max": [
    20.153257369995117,
    -3.0605878829956055,
    8.442514419555664
   ]
  },
  {
   "bufferView": 41,
   "componentType": 5126,
   "count": 111,
   "type": "VEC3"
  },
  {
   "bufferView": 42,
   "componentType": 5126,
   "count": 111,
   "type": "VEC2"
  },
  {
   "bufferView": 43,
   "componentType": 5125,
   "count": 432,
   "type": "SCALAR"
  },
  {
   "bufferView": 44,
   "componentType": 5126,
   "count": 175,
   "type": "VEC3",
   "min": [
    -10.279851913452148,
    -16.494417190551758,
    -17.85746192932129
   ],
   "max": [
    10.396486282348633,
    0.0,
    17.626176834106445
   ]
  },
  {
   "bufferView": 45,
   "componentType": 5126,
   "count": 175,
   "type": "VEC3"
  },
  {
   "bufferView": 46,
   "componentType": 5126,
   "count": 175,
   "type": "VEC2"
  },
  {
   "bufferView": 47,
   "componentType": 5125,
   "count": 864,
   "type": "SCALAR"
  },
  {
   "bufferView": 48,
   "componentType": 5126,
   "count": 63,
   "type": "VEC3",
   "min": [
    -10.828302383422852,
    -17.240652084350586,
    -17.14471435546875
   ],
   "max": [
    10.828302383422852,
    -5.708675861358643,
    17.85746192932129
   ]
  },
  {
   "bufferView": 49,
   "componentType": 5126,
   "count": 63,
   "type": "VEC3"
  },
  {
   "bufferView": 50,
   "componentType": 5126,
   "count": 63,
   "type": "VEC2"
  },
  {
   "bufferView": 51,
   "componentType": 5125,
   "count": 240,
   "type": "SCALAR"
  },
  {
   "bufferView": 52,
   "componentType": 5126,
   "count": 337,
   "type": "VEC3",
   "min": [
    -31.0,
    -5.0,
    -25.0
   ],
   "max": [
    31.0,
    0.0,
    25.0
   ]
  },
  {
   "bufferView": 53,
   "componentType": 5126,
   "count": 337,
   "type": "VEC3"
  },
  {
   "bufferView": 54,
   "componentType": 5126,
   "count": 337,
   "type": "VEC2"
  },
  {
   "bufferView": 55,
   "componentType": 5125,
   "count": 1728,
   "type": "SCALAR"
  },
  {
   "bufferView": 56,
   "componentType": 5126,
   "count": 978,
   "type": "VEC3",
   "min": [
    -24.66045570373535,
    -18.41358757019043,
    -24.875385284423828
   ],
   "max": [
    24.984338760375977,
    0.0,
    24.76940155029297
   ]
  },
  {
   "bufferView": 57,
   "componentType": 5126,
   "count": 978,
   "type": "VEC3"
  },
  {
   "bufferView": 58,
   "componentType": 5126,
   "count": 978,
   "type": "VEC2"
  },
  {
   "bufferView": 59,
   "componentType": 5125,
   "count": 5376,
   "type": "SCALAR"
  },
  {
   "bufferView": 60,
   "componentType": 5126,
   "count": 75,
   "type": "VEC3",
   "min": [
    -25.641521453857422,
    -16.496381759643555,
    -25.641324996948242
   ],
   "max": [
    25.641521453857422,
    -8.866177558898926,
    25.641324996948242
   ]
  },
  {
   "bufferView": 61,
   "componentType": 5126,
   "count": 75,
   "type": "VEC3"
  },
  {
   "bufferView": 62,
   "componentType": 5126,
   "count": 75,
   "type": "VEC2"
  },
  {
   "bufferView": 63,
   "componentType": 5125,
   "count": 288,
   "type": "SCALAR"
  },
  {
   "bufferView": 64,
   "componentType": 5126,
   "count": 978,
   "type": "VEC3",
   "min": [
    -24.89822769165039,
    -20.92376708984375,
    -24.753646850585938
   ],
   "max": [
    24.74654197692871,
    0.0,
    24.8907470703125
   ]
  },
  {
   "bufferView": 65,
   "componentType": 5126,
   "count": 978,
   "type": "VEC3"
  },
  {
   "bufferView": 66,
   "componentType": 5126,
   "count": 978,
   "type": "VEC2"
  },
  {
   "bufferView": 67,
   "componentType": 5125,
   "count": 5376,
   "type": "SCALAR"
  },
  {
   "bufferView": 68,
   "componentType": 5126,
   "count": 63,
   "type": "VEC3",
   "min": [
    -25.252840042114258,
    -18.71341896057129,
    -25.284753799438477
   ],
   "max": [
    25.252840042114258,
    -8.512364387512207,
    25.284753799438477
   ]
  },
  {
   "bufferView": 69,
   "componentType": 5126,
   "count": 63,
   "type": "VEC3"
  },
  {
   "bufferView": 70,
   "componentType": 5126,
   "count": 63,
   "type": "VEC2"
  },
  {
   "bufferView": 71,
   "componentType": 5125,
   "count": 240,
   "type": "SCALAR"
  },
  {
   "bufferView": 72,
   "componentType": 5126,
   "count": 10144,
   "type": "VEC3",
   "min": [
    -69.26893615722656,
    -28.92315101623535,
    -69.36015319824219
   ],
   "max": [
    69.26893615722656,
    0.0,
    69.36015319824219
   ]
  },
  {
   "bufferView": 73,
   "componentType": 5126,
   "count": 10144,
   "type": "VEC3"
  },
  {
   "bufferView": 74,
   "componentType": 5126,
   "count": 10144,
   "type": "VEC2"
  },
  {
   "bufferView": 75,
   "componentType": 5125,
   "count": 54360,
   "type": "SCALAR"
  },
  {
   "bufferView": 76,
   "componentType": 5126,
   "count": 468,
   "type": "VEC3",
   "min": [
    -68.90923309326172,
    -31.869482040405273,
    -68.98978424072266
   ],
   "max": [
    68.76856231689453,
    -8.177081108093262,
    68.6875991821289
   ]
  },
  {
   "bufferView": 77,
   "componentType": 5126,
   "count": 468,
   "type": "VEC3"
  },
  {
   "bufferView": 78,
   "componentType": 5126,
   "count": 468,
   "type": "VEC2"
  },
  {
   "bufferView": 79,
   "componentType": 5125,
   "count": 1824,
   "type": "SCALAR"
  },
  {
   "bufferView": 80,
   "componentType": 5126,
   "count": 423,
   "type": "VEC3",
   "min": [
    -57.39713668823242,
    -89.30782318115234,
    -28.61484146118164
   ],
   "max": [
    57.39713668823242,
    0.0,
    28.61484146118164
   ]
  },
  {
   "bufferView": 81,
   "componentType": 5126,
   "count": 423,
   "type": "VEC3"
  },
  {
   "bufferView": 82,
   "componentType": 5126,
   "count": 423,
   "type": "VEC2"
  },
  {
   "bufferView": 83,
   "componentType": 5125,
   "count": 2304,
   "type": "SCALAR"
  },
  {
   "bufferView": 84,
   "componentType": 5126,
   "count": 740,
   "type": "VEC3",
   "min": [
    -55.55478286743164,
    -96.13800048828125,
    -46.79911804199219
   ],
   "max": [
    55.55478286743164,
    0.0,
    46.79911804199219
   ]
  },
  {
   "bufferView": 85,
   "componentType": 5126,
   "count": 740,
   "type": "VEC3"
  },
  {
   "bufferView": 86,
   "componentType": 5126,
   "count": 740,
   "type": "VEC2"
  },
  {
   "bufferView": 87,
   "componentType": 5125,
   "count": 3996,
   "type": "SCALAR"
  },
  {
   "bufferView": 88,
   "componentType": 5126,
   "count": 423,
   "type": "VEC3",
   "min": [
    -57.39713668823242,
    -89.30782318115234,
    -28.61484146118164
   ],
   "max": [
    57.39713668823242,
    0.0,
    28.61484146118164
   ]
  },
  {
   "bufferView": 89,
   "componentType": 5126,
   "count": 423,
   "type": "VEC3"
  },
  {
   "bufferView": 90,
   "componentType": 5126,
   "count": 423,
   "type": "VEC2"
  },
  {
   "bufferView": 91,
   "componentType": 5125,
   "count": 2304,
   "type": "SCALAR"
  },
  {
   "bufferView": 92,
   "componentType": 5126,
   "count": 740,
   "type": "VEC3",
   "min": [
    -55.55498123168945,
    -96.13800048828125,
    -46.79911804199219
   ],
   "max": [
    55.55498123168945,
    0.0,
    46.79911804199219
   ]
  },
  {
   "bufferView": 93,
   "componentType": 5126,
   "count": 740,
   "type": "VEC3"
  },
  {
   "bufferView": 94,
   "componentType": 5126,
   "count": 740,
   "type": "VEC2"
  },
  {
   "bufferView": 95,
   "componentType": 5125,
   "count": 3996,
   "type": "SCALAR"
  },
  {
   "bufferView": 96,
   "componentType": 5126,
   "count": 1197,
   "type": "VEC3",
   "min": [
    -46.06864929199219,
    -18.13227081298828,
    -46.06864547729492
   ],
   "max": [
    46.06864929199219,
    0.0,
    46.06864547729492
   ]
  },
  {
   "bufferView": 97,
   "componentType": 5126,
   "count": 1197,
   "type": "VEC3"
  },
  {
   "bufferView": 98,
   "componentType": 5126,
   "count": 1197,
   "type": "VEC2"
  },
  {
   "bufferView": 99,
   "componentType": 5125,
   "count": 6816,
   "type": "SCALAR"
  },
  {
   "bufferView": 100,
   "componentType": 5126,
   "count": 1197,
   "type": "VEC3",
   "min": [
    -46.06864929199219,
    -18.13227081298828,
    -46.06864547729492
   ],
   "max": [
    46.06864929199219,
    0.0,
    46.06864547729492
   ]
  },
  {
   "bufferView": 101,
   "componentType": 5126,
   "count": 1197,
   "type": "VEC3"
  },
  {
   "bufferView": 102,
   "componentType": 5126,
   "count": 1197,
   "type": "VEC2"
  },
  {
   "bufferView": 103,
   "componentType": 5125,
   "count": 6816,
   "type": "SCALAR"
  },
  {
   "bufferView": 104,
   "componentType": 5126,
   "count": 2809,
   "type": "VEC3",
   "min": [
    -158.02000427246094,
    -48.686973571777344,
    -85.20840454101562
   ],
   "max": [
    158.02000427246094,
    0.0,
    85.20840454101562
   ]
  },
  {
   "bufferView": 105,
   "componentType": 5126,
   "count": 2809,
   "type": "VEC3"
  },
  {
   "bufferView": 106,
   "componentType": 5126,
   "count": 2809,
   "type": "VEC2"
  },
  {
   "bufferView": 107,
   "componentType": 5125,
   "count": 16032,
   "type": "SCALAR"
  }
 ],
 "bufferViews": [
  {
   "buffer": 0,
   "byteOffset": 0,
   "byteLength": 89784,
   "target": 34962
  },
  {
   "buffer": 0,
   "byteOffset": 89784,
   "byteLength": 89784,
   "target": 34962
  },
  {
   "buffer": 0,
   "byteOffset": 179568,
   "byteLength": 59856,
   "target": 34962
  },
  {
   "buffer": 0,
   "byteOffset": 239424,
   "byteLength": 167424,
   "target": 34963
  },
  {
   "buffer": 0,
   "byteOffset": 406848,
   "byteLength": 76332,
   "target": 34962
  },
  {
   "buffer": 0,
   "byteOffset": 483180,
   "byteLength": 76332,
   "target": 34962
  },
  {
   "buffer": 0,
   "byteOffset": 559512,
   "byteLength": 50888,
   "target": 34962
  },
  {
   "buffer": 0,
   "byteOffset": 610400,
   "byteLength": 127968,
   "target": 34963
  },
  {
   "buffer": 0,
   "byteOffset": 738368,
   "byteLength": 247356,
   "target": 34962
  },
  {
   "buffer": 0,
   "byteOffset": 985724,
   "byteLength": 247356,
   "target": 34962
  },
  {
   "buffer": 0,
   "byteOffset": 1233080,
   "byteLength": 164904,
   "target": 34962
  },
  {
   "buffer": 0,
   "byteOffset": 1397984,
   "byteLength": 467280,
   "target": 34963
  },
  {
   "buffer": 0,
   "byteOffset": 1865264,
   "byteLength": 11736,
   "target": 34962
  },
  {
   "buffer": 0,
   "byteOffset": 1877000,
   "byteLength": 11736,
   "target": 34962
  },
  {
   "buffer": 0,
   "byteOffset": 1888736,
   "byteLength": 7824,
   "target": 34962
  },
  {
   "buffer": 0,
   "byteOffset": 1896560,
   "byteLength": 21504,
   "target": 34963
  },
  {
   "buffer": 0,
   "byteOffset": 1918064,
   "byteLength": 756,
   "target": 34962
  },
  {
   "buffer": 0,
   "byteOffset": 1918820,
   "byteLength": 756,
   "target": 34962
  },
  {
   "buffer": 0,
   "byteOffset": 1919576,
   "byteLength": 504,
   "target": 34962
  },
  {
   "buffer": 0,
   "byteOffset": 1920080,
   "byteLength": 960,
   "target": 34963
  },
  {
   "buffer": 0,
   "byteOffset": 1921040,
   "byteLength": 2100,
   "target": 34962
  },
  {
   "buffer": 0,
   "byteOffset": 1923140,
   "byteLength": 2100,
   "target": 34962
  },
  {
   "buffer": 0,
   "byteOffset": 1925240,
   "byteLength": 1400,
   "target": 34962
  },
  {
   "buffer": 0,
   "byteOffset": 1926640,
   "byteLength": 3456,
   "target": 34963
  },
  {
   "buffer": 0,
   "byteOffset": 1930096,
   "byteLength": 756,
   "target": 34962
  },
  {
   "buffer": 0,
   "byteOffset": 1930852,
   "byteLength": 756,
   "target": 34962
  },
  {
   "buffer": 0,
   "byteOffset": 1931608,
   "byteLength": 504,
   "target": 34962
  },
  {
   "buffer": 0,
   "byteOffset": 1932112,
   "byteLength": 960,
   "target": 34963
  },
  {
   "buffer": 0,
   "byteOffset": 1933072,
   "byteLength": 11736,
   "target": 34962
  },
  {
   "buffer": 0,
   "byteOffset": 1944808,
   "byteLength": 11736,
   "target": 34962
  },
  {
   "buffer": 0,
   "byteOffset": 1956544,
   "byteLength": 7824,
   "target": 34962
  },
  {
   "buffer": 0,
   "byteOffset": 1964368,
   "byteLength": 21504,
   "target": 34963
  },
  {
   "buffer": 0,
   "byteOffset": 1985872,
   "byteLength": 900,
   "target": 34962
  },
  {
   "buffer": 0,
   "byteOffset": 1986772,
   "byteLength": 900,
   "target": 34962
  },
  {
   "buffer": 0,
   "byteOffset": 1987672,
   "byteLength": 600,
   "target": 34962
  },
  {
   "buffer": 0,
   "byteOffset": 1988272,
   "byteLength": 1152,
   "target": 34963
  },
  {
   "buffer": 0,
   "byteOffset": 1989424,
   "byteLength": 7248,
   "target": 34962
  },
  {
   "buffer": 0,
   "byteOffset": 1996672,
   "byteLength": 7248,
   "target": 34962
  },
  {
   "buffer": 0,
   "byteOffset": 2003920,
   "byteLength": 4832,
   "target": 34962
  },
  {
   "buffer": 0,
   "byteOffset": 2008752,
   "byteLength": 13056,
   "target": 34963
  },
  {
   "buffer": 0,
   "byteOffset": 2021808,
   "byteLength": 1332,
   "target": 34962
  },
  {
   "buffer": 0,
   "byteOffset": 2023140,
   "byteLength": 1332,
   "target": 34962
  },
  {
   "buffer": 0,
   "byteOffset": 2024472,
   "byteLength": 888,
   "target": 34962
  },
  {
   "buffer": 0,
   "byteOffset": 2025360,
   "byteLength": 1728,
   "target": 34963
  },
  {
   "buffer": 0,
   "byteOffset": 2027088,
   "byteLength": 2100,
   "target": 34962
  },
  {
   "buffer": 0,
   "byteOffset": 2029188,
   "byteLength": 2100,
   "target": 34962
  },
  {
   "buffer": 0,
   "byteOffset": 2031288,
   "byteLength": 1400,
   "target": 34962
  },
  {
   "buffer": 0,
   "byteOffset": 2032688,
   "byteLength": 3456,
   "target": 34963
  },
  {
   "buffer": 0,
   "byteOffset": 2036144,
   "byteLength": 756,
   "target": 34962
  },
  {
   "buffer": 0,
   "byteOffset": 2036900,
   "byteLength": 756,
   "target": 34962
  },
  {
   "buffer": 0,
   "byteOffset": 2037656,
   "byteLength": 504,
   "target": 34962
  },
  {
   "buffer": 0,
   "byteOffset": 2038160,
   "byteLength": 960,
   "target": 34963
  },
  {
   "buffer": 0,
   "byteOffset": 2039120,
   "byteLength": 4044,
   "target": 34962
  },
  {
   "buffer": 0,
   "byteOffset": 2043164,
   "byteLength": 4044,
   "target": 34962
  },
  {
   "buffer": 0,
   "byteOffset": 2047208,
   "byteLength": 2696,
   "target": 34962
  },
  {
   "buffer": 0,
   "byteOffset": 2049904,
   "byteLength": 6912,
   "target": 34963
  },
  {
   "buffer": 0,
   "byteOffset": 2056816,
   "byteLength": 11736,
   "target": 34962
  },
  {
   "buffer": 0,
   "byteOffset": 2068552,
   "byteLength": 11736,
   "target": 34962
  },
  {
   "buffer": 0,
   "byteOffset": 2080288,
   "byteLength": 7824,
   "target": 34962
  },
  {
   "buffer": 0,
   "byteOffset": 2088112,
   "byteLength": 21504,
   "target": 34963
  },
  {
   "buffer": 0,
   "byteOffset": 2109616,
   "byteLength": 900,
   "target": 34962
  },
  {
   "buffer": 0,
   "byteOffset": 2110516,
   "byteLength": 900,
   "target": 34962
  },
  {
   "buffer": 0,
   "byteOffset": 2111416,
   "byteLength": 600,
   "target": 34962
  },
  {
   "buffer": 0,
   "byteOffset": 2112016,
   "byteLength": 1152,
   "target": 34963
  },
  {
   "buffer": 0,
   "byteOffset": 2113168,
   "byteLength": 11736,
   "target": 34962
  },
  {
   "buffer": 0,
   "byteOffset": 2124904,
   "byteLength": 11736,
   "target": 34962
  },
  {
   "buffer": 0,
   "byteOffset": 2136640,
   "byteLength": 7824,
   "target": 34962
  },
  {
   "buffer": 0,
   "byteOffset": 2144464,
   "byteLength": 21504,
   "target": 34963
  },
  {
   "buffer": 0,
   "byteOffset": 2165968,
   "byteLength": 756,
   "target": 34962
  },
  {
   "buffer": 0,
   "byteOffset": 2166724,
   "byteLength": 756,
   "target": 34962
  },
  {
   "buffer": 0,
   "byteOffset": 2167480,
   "byteLength": 504,
   "target": 34962
  },
  {
   "buffer": 0,
   "byteOffset": 2167984,
   "byteLength": 960,
   "target": 34963
  },
  {
   "buffer": 0,
   "byteOffset": 2168944,
   "byteLength": 121728,
   "target": 34962
  },
  {
   "buffer": 0,
   "byteOffset": 2290672,
   "byteLength": 121728,
   "target": 34962
  },
  {
   "buffer": 0,
   "byteOffset": 2412400,
   "byteLength": 81152,
   "target": 34962
  },
  {
   "buffer": 0,
   "byteOffset": 2493552,
   "byteLength": 217440,
   "target": 34963
  },
  {
   "buffer": 0,
   "byteOffset": 2710992,
   "byteLength": 5616,
   "target": 34962
  },
  {
   "buffer": 0,
   "byteOffset": 2716608,
   "byteLength": 5616,
   "target": 34962
  },
  {
   "buffer": 0,
   "byteOffset": 2722224,
   "byteLength": 3744,
   "target": 34962
  },
  {
   "buffer": 0,
   "byteOffset": 2725968,
   "byteLength": 7296,
   "target": 34963
  },
  {
   "buffer": 0,
   "byteOffset": 2733264,
   "byteLength": 5076,
   "target": 34962
  },
  {
   "buffer": 0,
   "byteOffset": 2738340,
   "byteLength": 5076,
   "target": 34962
  },
  {
   "buffer": 0,
   "byteOffset": 2743416,
   "byteLength": 3384,
   "target": 34962
  },
  {
   "buffer": 0,
   "byteOffset": 2746800,
   "byteLength": 9216,
   "target": 34963
  },
  {
   "buffer": 0,
   "byteOffset": 2756016,
   "byteLength": 8880,
   "target": 34962
  },
  {
   "buffer": 0,
   "byteOffset": 2764896,
   "byteLength": 8880,
   "target": 34962
  },
  {
   "buffer": 0,
   "byteOffset": 2773776,
   "byteLength": 5920,
   "target": 34962
  },
  {
   "buffer": 0,
   "byteOffset": 2779696,
   "byteLength": 15984,
   "target": 34963
  },
  {
   "buffer": 0,
   "byteOffset": 2795680,
   "byteLength": 5076,
   "target": 34962
  },
  {
   "buffer": 0,
   "byteOffset": 2800756,
   "byteLength": 5076,
   "target": 34962
  },
  {
   "buffer": 0,
   "byteOffset": 2805832,
   "byteLength": 3384,
   "target": 34962
  },
  {
   "buffer": 0,
   "byteOffset": 2809216,
   "byteLength": 9216,
   "target": 34963
  },
  {
   "buffer": 0,
   "byteOffset": 2818432,
   "byteLength": 8880,
   "target": 34962
  },
  {
   "buffer": 0,
   "byteOffset": 2827312,
   "byteLength": 8880,
   "target": 34962
  },
  {
   "buffer": 0,
   "byteOffset": 2836192,
   "byteLength": 5920,
   "target": 34962
  },
  {
   "buffer": 0,
   "byteOffset": 2842112,
   "byteLength": 15984,
   "target": 34963
  },
  {
   "buffer": 0,
   "byteOffset": 2858096,
   "byteLength": 14364,
   "target": 34962
  },
  {
   "buffer": 0,
   "byteOffset": 2872460,
   "byteLength": 14364,
   "target": 34962
  },
  {
   "buffer": 0,
   "byteOffset": 2886824,
   "byteLength": 9576,
   "target": 34962
  },
  {
   "buffer": 0,
   "byteOffset": 2896400,
   "byteLength": 27264,
   "target": 34963
  },
  {
   "buffer": 0,
   "byteOffset": 2923664,
   "byteLength": 14364,
   "target": 34962
  },
  {
   "buffer": 0,
   "byteOffset": 2938028,
   "byteLength": 14364,
   "target": 34962
  },
  {
   "buffer": 0,
   "byteOffset": 2952392,
   "byteLength": 9576,
   "target": 34962
  },
  {
   "buffer": 0,
   "byteOffset": 2961968,
   "byteLength": 27264,
   "target": 34963
  },
  {
   "buffer": 0,
   "byteOffset": 2989232,
   "byteLength": 33708,
   "target": 34962
  },
  {
   "buffer": 0,
   "byteOffset": 3022940,
   "byteLength": 33708,
   "target": 34962
  },
  {
   "buffer": 0,
   "byteOffset": 3056648,
   "byteLength": 22472,
   "target": 34962
  },
  {
   "buffer": 0,
   "byteOffset": 3079120,
   "byteLength": 64128,
   "target": 34963
  }
 ],
 "buffers": [
  {
   "byteLength": 3143248,
   "uri": "dualsense.bin"
  }
 ]
}
