{
 "asset": {
  "version": "2.0",
  "generator": "SightLine legal page - certificate, 4:3 safe"
 },
 "extensionsUsed": [
  "KHR_materials_unlit"
 ],
 "scene": 0,
 "scenes": [
  {
   "nodes": [
    0,
    1,
    2,
    3,
    4,
    5,
    6,
    7,
    8,
    9,
    10,
    11
   ]
  }
 ],
 "nodes": [
  {
   "mesh": 0
  },
  {
   "mesh": 1
  },
  {
   "mesh": 2
  },
  {
   "mesh": 3
  },
  {
   "mesh": 4
  },
  {
   "mesh": 5
  },
  {
   "mesh": 6
  },
  {
   "mesh": 7
  },
  {
   "mesh": 8
  },
  {
   "mesh": 9
  },
  {
   "mesh": 10
  },
  {
   "mesh": 11
  }
 ],
 "meshes": [
  {
   "name": "title",
   "primitives": [
    {
     "attributes": {
      "POSITION": 0,
      "NORMAL": 1,
      "TEXCOORD_0": 2
     },
     "indices": 3,
     "material": 0
    }
   ]
  },
  {
   "name": "certify",
   "primitives": [
    {
     "attributes": {
      "POSITION": 4,
      "NORMAL": 5,
      "TEXCOORD_0": 6
     },
     "indices": 7,
     "material": 1
    }
   ]
  },
  {
   "name": "logo",
   "primitives": [
    {
     "attributes": {
      "POSITION": 8,
      "NORMAL": 9,
      "TEXCOORD_0": 10
     },
     "indices": 11,
     "material": 2
    }
   ]
  },
  {
   "name": "credits",
   "primitives": [
    {
     "attributes": {
      "POSITION": 12,
      "NORMAL": 13,
      "TEXCOORD_0": 14
     },
     "indices": 15,
     "material": 3
    }
   ]
  },
  {
   "name": "president",
   "primitives": [
    {
     "attributes": {
      "POSITION": 16,
      "NORMAL": 17,
      "TEXCOORD_0": 18
     },
     "indices": 19,
     "material": 4
    }
   ]
  },
  {
   "name": "sig1",
   "primitives": [
    {
     "attributes": {
      "POSITION": 20,
      "NORMAL": 21,
      "TEXCOORD_0": 22
     },
     "indices": 23,
     "material": 5
    }
   ]
  },
  {
   "name": "role2",
   "primitives": [
    {
     "attributes": {
      "POSITION": 24,
      "NORMAL": 25,
      "TEXCOORD_0": 26
     },
     "indices": 27,
     "material": 6
    }
   ]
  },
  {
   "name": "sig2",
   "primitives": [
    {
     "attributes": {
      "POSITION": 28,
      "NORMAL": 29,
      "TEXCOORD_0": 30
     },
     "indices": 31,
     "material": 7
    }
   ]
  },
  {
   "name": "seal",
   "primitives": [
    {
     "attributes": {
      "POSITION": 32,
      "NORMAL": 33,
      "TEXCOORD_0": 34
     },
     "indices": 35,
     "material": 8
    }
   ]
  },
  {
   "name": "players",
   "primitives": [
    {
     "attributes": {
      "POSITION": 36,
      "NORMAL": 37,
      "TEXCOORD_0": 38
     },
     "indices": 39,
     "material": 9
    }
   ]
  },
  {
   "name": "footer",
   "primitives": [
    {
     "attributes": {
      "POSITION": 40,
      "NORMAL": 41,
      "TEXCOORD_0": 42
     },
     "indices": 43,
     "material": 10
    }
   ]
  },
  {
   "name": "rule",
   "primitives": [
    {
     "attributes": {
      "POSITION": 44,
      "NORMAL": 45,
      "TEXCOORD_0": 46
     },
     "indices": 47,
     "material": 11
    }
   ]
  }
 ],
 "materials": [
  {
   "name": "legal-title",
   "extensions": {
    "KHR_materials_unlit": {}
   },
   "alphaMode": "BLEND",
   "extras": {
    "sl_texgen": false
   },
   "pbrMetallicRoughness": {
    "baseColorFactor": [
     1,
     1,
     1,
     1
    ],
    "baseColorTexture": {
     "index": 0
    },
    "metallicFactor": 0.0,
    "roughnessFactor": 1.0
   }
  },
  {
   "name": "legal-certify",
   "extensions": {
    "KHR_materials_unlit": {}
   },
   "alphaMode": "BLEND",
   "extras": {
    "sl_texgen": false
   },
   "pbrMetallicRoughness": {
    "baseColorFactor": [
     1,
     1,
     1,
     1
    ],
    "baseColorTexture": {
     "index": 1
    },
    "metallicFactor": 0.0,
    "roughnessFactor": 1.0
   }
  },
  {
   "name": "legal-logo",
   "extensions": {
    "KHR_materials_unlit": {}
   },
   "alphaMode": "BLEND",
   "extras": {
    "sl_texgen": false
   },
   "pbrMetallicRoughness": {
    "baseColorFactor": [
     1,
     1,
     1,
     1
    ],
    "baseColorTexture": {
     "index": 2
    },
    "metallicFactor": 0.0,
    "roughnessFactor": 1.0
   }
  },
  {
   "name": "legal-credits",
   "extensions": {
    "KHR_materials_unlit": {}
   },
   "alphaMode": "BLEND",
   "extras": {
    "sl_texgen": false
   },
   "pbrMetallicRoughness": {
    "baseColorFactor": [
     1,
     1,
     1,
     1
    ],
    "baseColorTexture": {
     "index": 3
    },
    "metallicFactor": 0.0,
    "roughnessFactor": 1.0
   }
  },
  {
   "name": "legal-president",
   "extensions": {
    "KHR_materials_unlit": {}
   },
   "alphaMode": "BLEND",
   "extras": {
    "sl_texgen": false
   },
   "pbrMetallicRoughness": {
    "baseColorFactor": [
     1,
     1,
     1,
     1
    ],
    "baseColorTexture": {
     "index": 4
    },
    "metallicFactor": 0.0,
    "roughnessFactor": 1.0
   }
  },
  {
   "name": "legal-sig1",
   "extensions": {
    "KHR_materials_unlit": {}
   },
   "alphaMode": "BLEND",
   "extras": {
    "sl_texgen": false
   },
   "pbrMetallicRoughness": {
    "baseColorFactor": [
     1,
     1,
     1,
     1
    ],
    "baseColorTexture": {
     "index": 5
    },
    "metallicFactor": 0.0,
    "roughnessFactor": 1.0
   }
  },
  {
   "name": "legal-role2",
   "extensions": {
    "KHR_materials_unlit": {}
   },
   "alphaMode": "BLEND",
   "extras": {
    "sl_texgen": false
   },
   "pbrMetallicRoughness": {
    "baseColorFactor": [
     1,
     1,
     1,
     1
    ],
    "baseColorTexture": {
     "index": 6
    },
    "metallicFactor": 0.0,
    "roughnessFactor": 1.0
   }
  },
  {
   "name": "legal-sig2",
   "extensions": {
    "KHR_materials_unlit": {}
   },
   "alphaMode": "BLEND",
   "extras": {
    "sl_texgen": false
   },
   "pbrMetallicRoughness": {
    "baseColorFactor": [
     1,
     1,
     1,
     1
    ],
    "baseColorTexture": {
     "index": 7
    },
    "metallicFactor": 0.0,
    "roughnessFactor": 1.0
   }
  },
  {
   "name": "legal-seal",
   "extensions": {
    "KHR_materials_unlit": {}
   },
   "alphaMode": "BLEND",
   "extras": {
    "sl_texgen": false
   },
   "pbrMetallicRoughness": {
    "baseColorFactor": [
     1,
     1,
     1,
     1
    ],
    "baseColorTexture": {
     "index": 8
    },
    "metallicFactor": 0.0,
    "roughnessFactor": 1.0
   }
  },
  {
   "name": "legal-players",
   "extensions": {
    "KHR_materials_unlit": {}
   },
   "alphaMode": "BLEND",
   "extras": {
    "sl_texgen": false
   },
   "pbrMetallicRoughness": {
    "baseColorFactor": [
     1,
     1,
     1,
     1
    ],
    "baseColorTexture": {
     "index": 9
    },
    "metallicFactor": 0.0,
    "roughnessFactor": 1.0
   }
  },
  {
   "name": "legal-footer",
   "extensions": {
    "KHR_materials_unlit": {}
   },
   "alphaMode": "BLEND",
   "extras": {
    "sl_texgen": false
   },
   "pbrMetallicRoughness": {
    "baseColorFactor": [
     1,
     1,
     1,
     1
    ],
    "baseColorTexture": {
     "index": 10
    },
    "metallicFactor": 0.0,
    "roughnessFactor": 1.0
   }
  },
  {
   "name": "legal-rule",
   "extensions": {
    "KHR_materials_unlit": {}
   },
   "extras": {
    "sl_texgen": false
   },
   "pbrMetallicRoughness": {
    "baseColorFactor": [
     0.72,
     0.6,
     0.34,
     1.0
    ],
    "metallicFactor": 0.0,
    "roughnessFactor": 1.0
   }
  }
 ],
 "textures": [
  {
   "source": 0
  },
  {
   "source": 1
  },
  {
   "source": 2
  },
  {
   "source": 3
  },
  {
   "source": 4
  },
  {
   "source": 5
  },
  {
   "source": 6
  },
  {
   "source": 7
  },
  {
   "source": 8
  },
  {
   "source": 9
  },
  {
   "source": 10
  }
 ],
 "images": [
  {
   "uri": "textures/title.png",
   "extras": {
    "sl_authored": true,
    "sl_authored_provenance": "Authored for Sightline; not extracted. No ROM pixel, vertex or display-list data is present. All wording is newly written for this page - no original rights holder's notice was copied, adapted, reworded or traced. Page title, text rendered to an RGBA bitmap from newly written wording."
   }
  },
  {
   "uri": "textures/certify.png",
   "extras": {
    "sl_authored": true,
    "sl_authored_provenance": "Authored for Sightline; not extracted. No ROM pixel, vertex or display-list data is present. All wording is newly written for this page - no original rights holder's notice was copied, adapted, reworded or traced. Left-column heading, text rendered to an RGBA bitmap from newly written wording."
   }
  },
  {
   "uri": "textures/logo.png",
   "extras": {
    "sl_authored": true,
    "sl_authored_provenance": "Authored for Sightline; not extracted. No ROM pixel, vertex or display-list data is present. All wording is newly written for this page - no original rights holder's notice was copied, adapted, reworded or traced. MOONWARE mark, generated procedurally from shape primitives."
   }
  },
  {
   "uri": "textures/credits.png",
   "extras": {
    "sl_authored": true,
    "sl_authored_provenance": "Authored for Sightline; not extracted. No ROM pixel, vertex or display-list data is present. All wording is newly written for this page - no original rights holder's notice was copied, adapted, reworded or traced. Right-column credit block, text rendered to an RGBA bitmap from newly written wording."
   }
  },
  {
   "uri": "textures/president.png",
   "extras": {
    "sl_authored": true,
    "sl_authored_provenance": "Authored for Sightline; not extracted. No ROM pixel, vertex or display-list data is present. All wording is newly written for this page - no original rights holder's notice was copied, adapted, reworded or traced. Role caption, text rendered to an RGBA bitmap from newly written wording."
   }
  },
  {
   "uri": "textures/sig1.png",
   "extras": {
    "sl_authored": true,
    "sl_authored_provenance": "Authored for Sightline; not extracted. No ROM pixel, vertex or display-list data is present. All wording is newly written for this page - no original rights holder's notice was copied, adapted, reworded or traced. Signature scrawl, generated procedurally as a stroked spline; not a scan and not anyone's real signature."
   }
  },
  {
   "uri": "textures/role2.png",
   "extras": {
    "sl_authored": true,
    "sl_authored_provenance": "Authored for Sightline; not extracted. No ROM pixel, vertex or display-list data is present. All wording is newly written for this page - no original rights holder's notice was copied, adapted, reworded or traced. Second role caption, text rendered to an RGBA bitmap from newly written wording."
   }
  },
  {
   "uri": "textures/sig2.png",
   "extras": {
    "sl_authored": true,
    "sl_authored_provenance": "Authored for Sightline; not extracted. No ROM pixel, vertex or display-list data is present. All wording is newly written for this page - no original rights holder's notice was copied, adapted, reworded or traced. Second signature scrawl, generated procedurally as a stroked spline; not a scan and not anyone's real signature."
   }
  },
  {
   "uri": "textures/seal.png",
   "extras": {
    "sl_authored": true,
    "sl_authored_provenance": "Authored for Sightline; not extracted. No ROM pixel, vertex or display-list data is present. All wording is newly written for this page - no original rights holder's notice was copied, adapted, reworded or traced. Eight-player seal emblem, generated procedurally from circles, radial ticks and text."
   }
  },
  {
   "uri": "textures/players.png",
   "extras": {
    "sl_authored": true,
    "sl_authored_provenance": "Authored for Sightline; not extracted. No ROM pixel, vertex or display-list data is present. All wording is newly written for this page - no original rights holder's notice was copied, adapted, reworded or traced. Player-count line, text rendered to an RGBA bitmap from newly written wording."
   }
  },
  {
   "uri": "textures/footer.png",
   "extras": {
    "sl_authored": true,
    "sl_authored_provenance": "Authored for Sightline; not extracted. No ROM pixel, vertex or display-list data is present. All wording is newly written for this page - no original rights holder's notice was copied, adapted, reworded or traced. Footer line, text rendered to an RGBA bitmap from newly written wording."
   }
  }
 ],
 "buffers": [
  {
   "uri": "legalpage.bin",
   "byteLength": 1824
  }
 ],
 "bufferViews": [
  {
   "buffer": 0,
   "byteOffset": 0,
   "byteLength": 48
  },
  {
   "buffer": 0,
   "byteOffset": 48,
   "byteLength": 48
  },
  {
   "buffer": 0,
   "byteOffset": 96,
   "byteLength": 32
  },
  {
   "buffer": 0,
   "byteOffset": 128,
   "byteLength": 24
  },
  {
   "buffer": 0,
   "byteOffset": 152,
   "byteLength": 48
  },
  {
   "buffer": 0,
   "byteOffset": 200,
   "byteLength": 48
  },
  {
   "buffer": 0,
   "byteOffset": 248,
   "byteLength": 32
  },
  {
   "buffer": 0,
   "byteOffset": 280,
   "byteLength": 24
  },
  {
   "buffer": 0,
   "byteOffset": 304,
   "byteLength": 48
  },
  {
   "buffer": 0,
   "byteOffset": 352,
   "byteLength": 48
  },
  {
   "buffer": 0,
   "byteOffset": 400,
   "byteLength": 32
  },
  {
   "buffer": 0,
   "byteOffset": 432,
   "byteLength": 24
  },
  {
   "buffer": 0,
   "byteOffset": 456,
   "byteLength": 48
  },
  {
   "buffer": 0,
   "byteOffset": 504,
   "byteLength": 48
  },
  {
   "buffer": 0,
   "byteOffset": 552,
   "byteLength": 32
  },
  {
   "buffer": 0,
   "byteOffset": 584,
   "byteLength": 24
  },
  {
   "buffer": 0,
   "byteOffset": 608,
   "byteLength": 48
  },
  {
   "buffer": 0,
   "byteOffset": 656,
   "byteLength": 48
  },
  {
   "buffer": 0,
   "byteOffset": 704,
   "byteLength": 32
  },
  {
   "buffer": 0,
   "byteOffset": 736,
   "byteLength": 24
  },
  {
   "buffer": 0,
   "byteOffset": 760,
   "byteLength": 48
  },
  {
   "buffer": 0,
   "byteOffset": 808,
   "byteLength": 48
  },
  {
   "buffer": 0,
   "byteOffset": 856,
   "byteLength": 32
  },
  {
   "buffer": 0,
   "byteOffset": 888,
   "byteLength": 24
  },
  {
   "buffer": 0,
   "byteOffset": 912,
   "byteLength": 48
  },
  {
   "buffer": 0,
   "byteOffset": 960,
   "byteLength": 48
  },
  {
   "buffer": 0,
   "byteOffset": 1008,
   "byteLength": 32
  },
  {
   "buffer": 0,
   "byteOffset": 1040,
   "byteLength": 24
  },
  {
   "buffer": 0,
   "byteOffset": 1064,
   "byteLength": 48
  },
  {
   "buffer": 0,
   "byteOffset": 1112,
   "byteLength": 48
  },
  {
   "buffer": 0,
   "byteOffset": 1160,
   "byteLength": 32
  },
  {
   "buffer": 0,
   "byteOffset": 1192,
   "byteLength": 24
  },
  {
   "buffer": 0,
   "byteOffset": 1216,
   "byteLength": 48
  },
  {
   "buffer": 0,
   "byteOffset": 1264,
   "byteLength": 48
  },
  {
   "buffer": 0,
   "byteOffset": 1312,
   "byteLength": 32
  },
  {
   "buffer": 0,
   "byteOffset": 1344,
   "byteLength": 24
  },
  {
   "buffer": 0,
   "byteOffset": 1368,
   "byteLength": 48
  },
  {
   "buffer": 0,
   "byteOffset": 1416,
   "byteLength": 48
  },
  {
   "buffer": 0,
   "byteOffset": 1464,
   "byteLength": 32
  },
  {
   "buffer": 0,
   "byteOffset": 1496,
   "byteLength": 24
  },
  {
   "buffer": 0,
   "byteOffset": 1520,
   "byteLength": 48
  },
  {
   "buffer": 0,
   "byteOffset": 1568,
   "byteLength": 48
  },
  {
   "buffer": 0,
   "byteOffset": 1616,
   "byteLength": 32
  },
  {
   "buffer": 0,
   "byteOffset": 1648,
   "byteLength": 24
  },
  {
   "buffer": 0,
   "byteOffset": 1672,
   "byteLength": 48
  },
  {
   "buffer": 0,
   "byteOffset": 1720,
   "byteLength": 48
  },
  {
   "buffer": 0,
   "byteOffset": 1768,
   "byteLength": 32
  },
  {
   "buffer": 0,
   "byteOffset": 1800,
   "byteLength": 24
  }
 ],
 "accessors": [
  {
   "bufferView": 0,
   "componentType": 5126,
   "count": 4,
   "type": "VEC3",
   "min": [
    -2450.0,
    1560.0,
    0.0
   ],
   "max": [
    2450.0,
    1860.0,
    0.0
   ]
  },
  {
   "bufferView": 1,
   "componentType": 5126,
   "count": 4,
   "type": "VEC3"
  },
  {
   "bufferView": 2,
   "componentType": 5126,
   "count": 4,
   "type": "VEC2"
  },
  {
   "bufferView": 3,
   "componentType": 5125,
   "count": 6,
   "type": "SCALAR"
  },
  {
   "bufferView": 4,
   "componentType": 5126,
   "count": 4,
   "type": "VEC3",
   "min": [
    -2400.0,
    1080.0,
    0.0
   ],
   "max": [
    -1250.0,
    1240.0,
    0.0
   ]
  },
  {
   "bufferView": 5,
   "componentType": 5126,
   "count": 4,
   "type": "VEC3"
  },
  {
   "bufferView": 6,
   "componentType": 5126,
   "count": 4,
   "type": "VEC2"
  },
  {
   "bufferView": 7,
   "componentType": 5125,
   "count": 6,
   "type": "SCALAR"
  },
  {
   "bufferView": 8,
   "componentType": 5126,
   "count": 4,
   "type": "VEC3",
   "min": [
    -2400.0,
    560.0,
    0.0
   ],
   "max": [
    -900.0,
    1000.0,
    0.0
   ]
  },
  {
   "bufferView": 9,
   "componentType": 5126,
   "count": 4,
   "type": "VEC3"
  },
  {
   "bufferView": 10,
   "componentType": 5126,
   "count": 4,
   "type": "VEC2"
  },
  {
   "bufferView": 11,
   "componentType": 5125,
   "count": 6,
   "type": "SCALAR"
  },
  {
   "bufferView": 12,
   "componentType": 5126,
   "count": 4,
   "type": "VEC3",
   "min": [
    300.0,
    560.0,
    0.0
   ],
   "max": [
    2500.0,
    1240.0,
    0.0
   ]
  },
  {
   "bufferView": 13,
   "componentType": 5126,
   "count": 4,
   "type": "VEC3"
  },
  {
   "bufferView": 14,
   "componentType": 5126,
   "count": 4,
   "type": "VEC2"
  },
  {
   "bufferView": 15,
   "componentType": 5125,
   "count": 6,
   "type": "SCALAR"
  },
  {
   "bufferView": 16,
   "componentType": 5126,
   "count": 4,
   "type": "VEC3",
   "min": [
    -2400.0,
    -60.0,
    0.0
   ],
   "max": [
    -1700.0,
    80.0,
    0.0
   ]
  },
  {
   "bufferView": 17,
   "componentType": 5126,
   "count": 4,
   "type": "VEC3"
  },
  {
   "bufferView": 18,
   "componentType": 5126,
   "count": 4,
   "type": "VEC2"
  },
  {
   "bufferView": 19,
   "componentType": 5125,
   "count": 6,
   "type": "SCALAR"
  },
  {
   "bufferView": 20,
   "componentType": 5126,
   "count": 4,
   "type": "VEC3",
   "min": [
    -2400.0,
    -290.0,
    0.0
   ],
   "max": [
    -1550.0,
    -90.0,
    0.0
   ]
  },
  {
   "bufferView": 21,
   "componentType": 5126,
   "count": 4,
   "type": "VEC3"
  },
  {
   "bufferView": 22,
   "componentType": 5126,
   "count": 4,
   "type": "VEC2"
  },
  {
   "bufferView": 23,
   "componentType": 5125,
   "count": 6,
   "type": "SCALAR"
  },
  {
   "bufferView": 24,
   "componentType": 5126,
   "count": 4,
   "type": "VEC3",
   "min": [
    -2400.0,
    -500.0,
    0.0
   ],
   "max": [
    -1700.0,
    -360.0,
    0.0
   ]
  },
  {
   "bufferView": 25,
   "componentType": 5126,
   "count": 4,
   "type": "VEC3"
  },
  {
   "bufferView": 26,
   "componentType": 5126,
   "count": 4,
   "type": "VEC2"
  },
  {
   "bufferView": 27,
   "componentType": 5125,
   "count": 6,
   "type": "SCALAR"
  },
  {
   "bufferView": 28,
   "componentType": 5126,
   "count": 4,
   "type": "VEC3",
   "min": [
    -2400.0,
    -760.0,
    0.0
   ],
   "max": [
    -1400.0,
    -560.0,
    0.0
   ]
  },
  {
   "bufferView": 29,
   "componentType": 5126,
   "count": 4,
   "type": "VEC3"
  },
  {
   "bufferView": 30,
   "componentType": 5126,
   "count": 4,
   "type": "VEC2"
  },
  {
   "bufferView": 31,
   "componentType": 5125,
   "count": 6,
   "type": "SCALAR"
  },
  {
   "bufferView": 32,
   "componentType": 5126,
   "count": 4,
   "type": "VEC3",
   "min": [
    900.0,
    -500.0,
    0.0
   ],
   "max": [
    1550.0,
    150.0,
    0.0
   ]
  },
  {
   "bufferView": 33,
   "componentType": 5126,
   "count": 4,
   "type": "VEC3"
  },
  {
   "bufferView": 34,
   "componentType": 5126,
   "count": 4,
   "type": "VEC2"
  },
  {
   "bufferView": 35,
   "componentType": 5125,
   "count": 6,
   "type": "SCALAR"
  },
  {
   "bufferView": 36,
   "componentType": 5126,
   "count": 4,
   "type": "VEC3",
   "min": [
    200.0,
    -850.0,
    0.0
   ],
   "max": [
    2500.0,
    -650.0,
    0.0
   ]
  },
  {
   "bufferView": 37,
   "componentType": 5126,
   "count": 4,
   "type": "VEC3"
  },
  {
   "bufferView": 38,
   "componentType": 5126,
   "count": 4,
   "type": "VEC2"
  },
  {
   "bufferView": 39,
   "componentType": 5125,
   "count": 6,
   "type": "SCALAR"
  },
  {
   "bufferView": 40,
   "componentType": 5126,
   "count": 4,
   "type": "VEC3",
   "min": [
    -2200.0,
    -1720.0,
    0.0
   ],
   "max": [
    2200.0,
    -1530.0,
    0.0
   ]
  },
  {
   "bufferView": 41,
   "componentType": 5126,
   "count": 4,
   "type": "VEC3"
  },
  {
   "bufferView": 42,
   "componentType": 5126,
   "count": 4,
   "type": "VEC2"
  },
  {
   "bufferView": 43,
   "componentType": 5125,
   "count": 6,
   "type": "SCALAR"
  },
  {
   "bufferView": 44,
   "componentType": 5126,
   "count": 4,
   "type": "VEC3",
   "min": [
    -2602.0,
    240.0,
    0.0
   ],
   "max": [
    2599.0,
    261.0,
    0.0
   ]
  },
  {
   "bufferView": 45,
   "componentType": 5126,
   "count": 4,
   "type": "VEC3"
  },
  {
   "bufferView": 46,
   "componentType": 5126,
   "count": 4,
   "type": "VEC2"
  },
  {
   "bufferView": 47,
   "componentType": 5125,
   "count": 6,
   "type": "SCALAR"
  }
 ],
 "extras": {
  "sl_authored_summary": "Sightline replacement legal page. Geometry authored: 12 axis-aligned quads at z=0. Only the panel POSITIONS and the original prop's overall extent (x -2602..2599) were measured from the original, as PROPORTIONS - no asset data was carried across. The original rights holders' notices were neither reproduced nor adapted."
 }
}
